<svg id="Layer_1" data-name="Layer 1" xmlns="http://www.w3.org/2000/svg" viewBox="0 0 1366 768"><defs><style>.cls-1{fill:#002d62;}.cls-2{fill:#ac162c;}.cls-3{fill:#231f20;}</style></defs><title>Artboard 1</title><path class="cls-1" d="M529.51,191.08a24.92,24.92,0,0,0-6.11,8.48,21.42,21.42,0,0,0-1.89,8q0,9.75,7.6,19.71a144.92,144.92,0,0,0,15.38,16.57V183.25a35.18,35.18,0,0,0-3.83,1.05A38.74,38.74,0,0,0,529.51,191.08Z"/><path class="cls-1" d="M502.23,290.62A43,43,0,0,0,495.15,315q0,19.21,16.35,31.86c8.63,6.69,19.7,10.62,33,12V288c-6.92-5.88-13-11.24-18.11-16Q509.28,279.94,502.23,290.62Z"/><path class="cls-1" d="M446.73,317c2.66-8.37,8.81-16.17,15.7-23.25,9.2-9.47,29.5-19.36,54.67-30q-17.1-15.12-26.57-26.14T481,212.84a30,30,0,0,1,5.8-17.87,50.77,50.77,0,0,1,16.35-14.19,85.17,85.17,0,0,1,23.62-8.62,129.07,129.07,0,0,1,17.69-2.53V74H446.73V177.84h-80.6V74H268.37V378.1h97.76V247.16h80.6Z"/><path class="cls-1" d="M500.8,376.23a102.21,102.21,0,0,1-28-9.68,58.59,58.59,0,0,1-19.84-16.67,37.38,37.38,0,0,1-6.19-13.39v41.6H515.1C509.88,377.62,504.8,377,500.8,376.23Z"/><path class="cls-2" d="M609.88,342.12q-19.61-16.68-44.18-36.53l-.81-.66V359a105.22,105.22,0,0,0,20.64-4Q600.39,350.58,609.88,342.12Z"/><path class="cls-2" d="M661.26,377.9,621,350.32q-6.94,5.08-15.92,10.52a125.83,125.83,0,0,1-18.87,9.39,147.57,147.57,0,0,1-21.37,6.47v1.4h97.75v-.2Z"/><path class="cls-2" d="M583.88,233.68q9.55-9.54,9.55-22.25,0-14.41-9.46-22.11-7.22-5.87-19.08-7.24v64.07C573.08,242.19,579.51,238,583.88,233.68Z"/><path class="cls-2" d="M743.25,74V177.84H662.64V74H564.89v95.41a98.82,98.82,0,0,1,19.79,3.23q12.74,3.61,20.76,9.4a38.49,38.49,0,0,1,11.28,12.43,29,29,0,0,1,3.91,14.13q0,16.95-15.68,29.17c-9.82,7.65-23.25,14.55-40.07,20.76v4c12.11,10.85,24,20.91,35.63,30q19,14.76,36.45,29,14.09-15.12,21.85-28.46c1.91-7.64,1.91-19,1.91-25.76q0-4.52-9.81-7.14c-6.54-1.74-9.87-1.76-21.22-2.79v-10h32.94v-.15h80.61V378.1H841V74Z"/><path class="cls-2" d="M662.64,340.26V314c-3.88,5.25-8.58,11.33-14.08,16C652.54,333.17,657.38,336.65,662.64,340.26Z"/><path class="cls-3" d="M905.48,350.47c23.22,6.84,36.28,14.46,36.28,22.51,0,29.4-173.16,53.22-386.75,53.22S168.25,402.37,168.25,373c0-8,13.06-15.67,36.31-22.52C157,361.84,129,375.64,129,390.51,129,429.44,319.74,461,555,461s426-31.56,426-70.49C981,375.64,953,361.84,905.48,350.47Z"/></svg>