<svg xmlns="http://www.w3.org/2000/svg" viewBox="0 0 852 387"><defs><style>.cls-1{fill:#002d62;}.cls-2{fill:#ac162c;}.cls-3{fill:#231f20;}</style></defs><title>Asset 2</title><g id="Layer_2" data-name="Layer 2"><g id="Layer_1-2" data-name="Layer 1"><path class="cls-1" d="M400.51,117.08a24.92,24.92,0,0,0-6.11,8.48,21.42,21.42,0,0,0-1.89,8q0,9.75,7.6,19.71a144.92,144.92,0,0,0,15.38,16.57V109.25a35.18,35.18,0,0,0-3.83,1.05A38.74,38.74,0,0,0,400.51,117.08Z"/><path class="cls-1" d="M373.23,216.62A43,43,0,0,0,366.15,241q0,19.21,16.35,31.86c8.63,6.69,19.7,10.62,33,12V214c-6.92-5.88-13-11.24-18.11-16Q380.28,205.94,373.23,216.62Z"/><path class="cls-1" d="M317.73,243c2.66-8.37,8.81-16.17,15.7-23.25,9.2-9.47,29.5-19.36,54.67-30q-17.1-15.12-26.57-26.14T352,138.84a30,30,0,0,1,5.8-17.87,50.77,50.77,0,0,1,16.35-14.19,85.17,85.17,0,0,1,23.62-8.62,129.07,129.07,0,0,1,17.69-2.53V0H317.73V103.84h-80.6V0H139.37V304.1h97.76V173.16h80.6Z"/><path class="cls-1" d="M371.8,302.23a102.21,102.21,0,0,1-28-9.68,58.59,58.59,0,0,1-19.84-16.67,37.38,37.38,0,0,1-6.19-13.39v41.6H386.1C380.88,303.62,375.8,303,371.8,302.23Z"/><path class="cls-2" d="M480.88,268.12q-19.61-16.68-44.18-36.53l-.81-.66V285a105.22,105.22,0,0,0,20.64-4Q471.39,276.58,480.88,268.12Z"/><path class="cls-2" d="M532.26,303.9,492,276.32q-6.94,5.08-15.92,10.52a125.83,125.83,0,0,1-18.87,9.39,147.57,147.57,0,0,1-21.37,6.47v1.4h97.75v-.2Z"/><path class="cls-2" d="M454.88,159.68q9.55-9.54,9.55-22.25,0-14.41-9.46-22.11-7.22-5.87-19.08-7.24v64.07C444.08,168.19,450.51,164,454.88,159.68Z"/><path class="cls-2" d="M614.25,0V103.84H533.64V0H435.89V95.41a98.82,98.82,0,0,1,19.79,3.23q12.74,3.61,20.76,9.4a38.49,38.49,0,0,1,11.28,12.43,29,29,0,0,1,3.91,14.13q0,16.95-15.68,29.17c-9.82,7.65-23.25,14.55-40.07,20.76v4c12.11,10.85,24,20.91,35.63,30q19,14.76,36.45,29,14.09-15.12,21.85-28.46c1.91-7.64,1.91-19,1.91-25.76q0-4.52-9.81-7.14c-6.54-1.74-9.87-1.76-21.22-2.79v-10h32.94v-.15h80.61V304.1H712V0Z"/><path class="cls-2" d="M533.64,266.26V240c-3.88,5.25-8.58,11.33-14.08,16C523.54,259.17,528.38,262.65,533.64,266.26Z"/><path class="cls-3" d="M776.48,276.47c23.22,6.84,36.28,14.46,36.28,22.51,0,29.4-173.16,53.22-386.75,53.22S39.25,328.37,39.25,299c0-8,13.06-15.67,36.31-22.52C28,287.84,0,301.64,0,316.51,0,355.44,190.74,387,426,387s426-31.56,426-70.49C852,301.64,824,287.84,776.48,276.47Z"/></g></g></svg>